<svg width="954" height="1034" xmlns="http://www.w3.org/2000/svg" xmlns:xlink="http://www.w3.org/1999/xlink" overflow="hidden"><defs><clipPath id="clip0"><rect x="1723" y="926" width="954" height="1034"/></clipPath></defs><g clip-path="url(#clip0)" transform="translate(-1723 -926)"><text font-family="寒蝉全圆体,寒蝉全圆体_MSFontService,sans-serif" font-weight="400" font-size="183" transform="matrix(1 0 0 1 1833.34 1761)">蓝云工坊<tspan font-size="92" x="-40.975" y="127">—</tspan><tspan font-size="92" x="50.6918" y="127">BluCraft</tspan><tspan font-size="92" x="432.254" y="127">Cloud</tspan><tspan font-size="92" x="682.619" y="127">—</tspan></text><path d="M1854 1002C1854 960.027 1888.03 926 1930 926L2234 926C2275.97 926 2310 960.027 2310 1002L2310 1306C2310 1347.97 2275.97 1382 2234 1382L1930 1382C1888.03 1382 1854 1347.97 1854 1306Z" fill="#00B0F0" fill-rule="evenodd" fill-opacity="0.701961"/><path d="M2035 1181C2035 1139.03 2069.03 1105 2111 1105L2415 1105C2456.97 1105 2491 1139.03 2491 1181L2491 1485C2491 1526.97 2456.97 1561 2415 1561L2111 1561C2069.03 1561 2035 1526.97 2035 1485Z" fill="#0070C0" fill-rule="evenodd" fill-opacity="0.701961"/></g></svg>